<?xml version="1.0" standalone="no"?><!DOCTYPE svg PUBLIC "-//W3C//DTD SVG 1.1//EN" "http://www.w3.org/Graphics/SVG/1.1/DTD/svg11.dtd"><svg t="1720934054532" class="icon" viewBox="0 0 1024 1024" version="1.1" xmlns="http://www.w3.org/2000/svg" p-id="54060" xmlns:xlink="http://www.w3.org/1999/xlink" width="200" height="200"><path d="M306.49344 725.70368c16.94208 12.47232 73.09312 2.67264 94.48448 4.44928 21.39136 1.77664 33.85856 6.2464 49.90464 22.28736 16.04096 16.04608 50.80064 21.39648 50.80064 21.39648V391.4752c-56.25344 50.94912-113.19808 81.13664-161.59744 99.24608V371.90144c0-21.64224 16.51712-39.25504 36.80768-39.25504h271.14496c20.30592 0 36.80768 17.60768 36.80768 39.25504v118.81984c-48.39936-18.10944-105.344-48.29696-161.59744-99.24608v382.3616s34.75968-5.3504 50.80064-21.39648c16.04608-16.04096 28.53376-20.51072 49.92512-22.28736 21.39648-1.77664 77.54752 8.01792 94.464-4.44928 16.94208-12.47232 94.45888-163.97824 100.72576-186.27072 6.22592-22.29248-7.1424-21.74464-7.1424-21.74464s-33.8176 0.32768-84.39296-13.20448V371.90144c0-45.2352-35.70176-82.03264-79.5904-82.03264h-36.05504c0.3328-2.25792 0.67072-4.53632 0.67072-6.89664v-73.1136c0-24.43776-19.26144-44.32896-42.95168-44.32896H475.136c-23.68512 0-42.97216 19.88608-42.97216 44.32896v73.1136c0 2.36032 0.3328 4.63872 0.68096 6.89664H376.89344c-43.88864 0-79.58528 36.79744-79.58528 82.03264v132.5824c-50.57024 13.53728-84.39296 13.20448-84.39296 13.20448s-13.36832-0.54272-7.12192 21.74464c6.24128 22.29248 83.7632 173.80352 100.70016 186.27072z m157.75744-442.7264v-73.1136c0-6.74816 4.87936-12.24192 10.88-12.24192h94.5664c5.99552 0 10.86464 5.49376 10.86464 12.24192v73.1136c0 2.6112-0.90112 4.91008-2.12992 6.89664H466.3808c-1.23904-1.98656-2.12992-4.28544-2.12992-6.89664z" fill="#0a66c2" p-id="54061"></path><path d="M895.57504 800.56832a16.09728 16.09728 0 0 0-20.99712 8.63232c-0.12288 0.31232-14.88896 31.68768-73.42592 31.68768-27.63264 0-38.93248-15.70816-53.28896-35.61984-15.22688-21.16096-34.19648-47.47776-75.8272-47.47776-38.90176 0-62.62784 23.08096-83.5584 43.44832-20.97152 20.38784-40.77568 39.64928-76.01664 39.64928-36.99712 0-54.80448-20.70528-73.65632-42.61376-17.12128-19.91168-34.82112-40.48384-65.46944-40.48384-32.86016 0-55.86944 23.79264-76.17024 44.78464-18.18624 18.82624-35.3536 36.5824-57.3184 38.144-46.21824 3.3024-78.88896-43.41248-79.22688-43.88864a15.99488 15.99488 0 0 0-22.26688-4.15744 16.0256 16.0256 0 0 0-4.1984 22.29248c1.66912 2.46272 40.32512 58.0096 100.87424 58.0096 2.3296 0 4.70016-0.08704 7.0912-0.25088 34.21696-2.44736 57.53856-26.55744 78.11584-47.84128 18.16576-18.78016 33.85344-35.01056 53.10464-35.01056 15.17568 0 25.0368 10.58816 41.14432 29.33248 20.61312 23.9616 46.26944 53.77024 97.98144 53.77024 48.27648 0 74.91072-25.88672 98.39104-48.73728 19.7376-19.2 35.32288-34.36544 61.184-34.36544 24.01792 0 34.08896 12.34432 49.80224 34.15552s35.26144 48.9472 79.31392 48.9472c80.6144 0 102.14912-49.30048 103.04512-51.40992a16.05632 16.05632 0 0 0-8.6272-20.99712z" fill="#0a66c2" p-id="54062"></path></svg>