<?xml version="1.0" encoding="utf-8"?>
<!-- Generator: Adobe Illustrator 24.2.0, SVG Export Plug-In . SVG Version: 6.00 Build 0)  -->
<svg version="1.1" xmlns="http://www.w3.org/2000/svg" xmlns:xlink="http://www.w3.org/1999/xlink"
	 viewBox="0 0 200 200" style="enable-background:new 0 0 200 200;" xml:space="preserve">
<style type="text/css">
	.st0{fill:#9B9B9B;}
	.st1{fill:#D6D6D6;}
	.st2{fill:none;stroke:#9B9B9B;stroke-width:25.0243;stroke-miterlimit:10;}
	.st3{fill:none;stroke:#D6D6D6;stroke-width:25.0243;stroke-miterlimit:10;}
</style>
<g>
	<g>
		<path class="st0" d="M100,184.8c-46.8,0-84.8-38-84.8-84.8c0-46.8,38-84.8,84.8-84.8c46.8,0,84.8,38,84.8,84.8
			C184.8,146.8,146.8,184.8,100,184.8z M100,40.2c-33,0-59.8,26.8-59.8,59.8s26.8,59.8,59.8,59.8s59.8-26.8,59.8-59.8
			S133,40.2,100,40.2z"/>
	</g>
	<g>
		<path class="st1" d="M72.6,180.2c-21.4-7.3-38.7-22.6-48.7-42.9C13.9,117,12.5,94,19.8,72.6l23.7,8.1c-5.2,15.1-4.1,31.3,2.9,45.6
			s19.2,25.1,34.3,30.2L72.6,180.2z"/>
	</g>
</g>
<circle class="st2" cx="362.4" cy="103.6" r="72.3"/>
<path class="st3" d="M339.1,172c-37.8-12.9-57.9-54-45-91.8"/>
</svg>
